<svg width="400" height="400" viewBox="0 0 400 400" fill="none" xmlns="http://www.w3.org/2000/svg">
  <g>
    <path d="M200 400C310.457 400 400 310.457 400 200C400 89.5431 310.457 0 200 0C89.5431 0 0 89.5431 0 200C0 310.457 89.5431 400 200 400Z" fill="#FF69B4"/>
    <path d="M200 360C280.914 360 360 280.914 360 200C360 119.086 280.914 40 200 40C119.086 40 40 119.086 40 200C40 280.914 119.086 360 200 360Z" fill="#FFFF00"/>
    <path d="M200 320C261.421 320 320 261.421 320 200C320 138.579 261.421 80 200 80C138.579 80 80 138.579 80 200C80 261.421 138.579 320 200 320Z" fill="#9370DB"/>
    <path d="M200 280C242.092 280 280 242.092 280 200C280 157.908 242.092 120 200 120C157.908 120 120 157.908 120 200C120 242.092 157.908 280 200 280Z" fill="#FFFF00"/>
    <path d="M200 240C223.196 240 240 223.196 240 200C240 176.804 223.196 160 200 160C176.804 160 160 176.804 160 200C160 223.196 176.804 240 200 240Z" fill="#FF69B4"/>
    <text x="50%" y="50%" dominant-baseline="middle" text-anchor="middle" font-size="80" font-weight="bold" fill="#FFFFFF">Wondaura</text>
  </g>
</svg>